<svg width="320" height="375" xmlns="http://www.w3.org/2000/svg"><path d="M153.901 16.623c-13.835 1.132-28.517 5.83-38.739 12.282-1.298.792-2.597 1.415-2.993 1.415-.395 0-.564.226-.395.453.113.226-.113.51-.452.679-.395.113-.564.396-.395.623.17.17 1.92-.283 3.897-1.076 4.743-1.868 10.616-3.056 15.811-3.17 3.784-.056 4.8.17 9.883 2.265 6.72 2.773 13.327 6.509 18.296 10.3 4.857 3.737 5.873 3.68 11.633-.622 4.518-3.396 15.586-9.282 20.781-10.98 1.468-.51 4.518-.906 6.777-.906 3.557 0 5.76.34 13.1 1.981 1.639.34 1.639.34.566-.566-2.203-1.811-11.182-6.056-17.055-7.98-7.623-2.548-15.134-4.02-24.564-4.755-8.188-.623-7.793-.623-16.15.057z"/><path d="M126.118 36.942c0 .283.338.566.734.566 1.75 0 5.082 3.057 6.38 5.83 1.639 3.566 1.695 6.113.17 9.396-2.654 6-8.753 8.32-14.57 5.716-6.041-2.773-8.413-9.169-5.703-15.225.622-1.358 1.017-2.604.904-2.774-.565-.566-6.042 3.51-8.753 6.453-3.162 3.453-5.252 7.471-6.55 12.396-2.372 9.169.338 17.716 7.34 23.036 3.615 2.717 6.608 3.51 12.085 3.113 7.398-.51 15.078-4.245 21.516-10.584 5.138-4.981 5.929-7.358 5.929-17.264-.056-6.339-.226-7.81-1.355-10.754-1.694-4.188-6.1-8.773-9.43-9.792-2.824-.849-8.697-.905-8.697-.113zm68.555 1.698c-4.348.623-6.777 1.642-9.544 4.019-4.743 4.188-5.985 10.98-3.67 20.093 2.597 9.905 8.019 17.773 14.57 20.999 2.992 1.472 3.67 1.585 10.277 1.585 8.47 0 11.802-1.076 16.376-5.207 4.123-3.68 5.76-7.245 6.1-13.019.564-9.792-5.027-20.263-12.99-24.508-1.185-.622-2.145-1.075-2.145-.905 0 .113.508 1.302 1.13 2.66 2.88 6.396-.452 13.584-7.116 15.565-3.67 1.076-7.059.34-10.108-2.207-5.365-4.415-5.534-12.17-.339-17.037 1.638-1.585 2.259-2.66 1.355-2.547-.282.056-1.976.283-3.896.51zM81.506 65.81c-8.301 16.527-12.875 32.375-13.327 45.733l-.17 6.452-2.428 3.17c-4.687 6.226-16.15 23.829-20.499 31.583-14.4 25.527-23.266 49.243-27.444 73.524-1.694 9.736-2.146 29.772-.847 38.772 4.009 27.508 16.715 50.657 38.4 69.732 5.138 4.585 4.574 4.585 13.157.453 3.163-1.585 5.93-2.83 6.156-2.83.677 0 7.284 6.452 7.115 6.962-.057.283.056.34.339.17.226-.114 2.09 1.018 4.122 2.546 8.132 6.34 26.598 17.603 27.388 16.754.17-.17-2.202-3.113-5.364-6.565-13.045-14.434-20.5-28.244-25.977-48.28-4.461-16.245-6.155-27.905-6.663-45.847-.396-14.943.056-19.358 3.218-31.923 3.22-12.622 8.64-26.885 16.49-43.413 1.92-3.962 3.332-7.358 3.106-7.528-.17-.17-3.502 1.981-7.398 4.811s-7.115 4.925-7.115 4.698c.056-1.188 8.47-16.244 9.035-16.074.339.056.508-.114.282-.453-.17-.34.396-1.642 1.243-3 3.84-5.66 7.228-10.415 8.753-12.282.847-1.076 1.58-2.151 1.58-2.378 0-.226-1.354-1.132-2.936-1.924-4.348-2.15-7.34-4.811-9.035-7.924-5.308-9.905-1.581-22.584 11.52-39.168 1.807-2.264 3.275-4.358 3.275-4.584 0-.227-2.88-1.812-6.324-3.623-9.94-5.037-15.812-10.64-17.676-16.98-1.073-3.623-1.073-4.868.057-10.301.508-2.378.734-4.472.621-4.642-.17-.17-1.355 1.812-2.654 4.359zm164.047 6.622c-.79 5.83-2.598 9.17-7.172 13.527-3.388 3.227-7.059 5.604-12.762 8.264-2.71 1.302-5.026 2.377-5.139 2.49-.113.114 1.299 2.038 3.162 4.302 4.97 6.056 9.657 13.471 11.916 19.075 2.54 6.17 3.106 12.848 1.524 17.659-1.242 3.736-6.494 9.226-10.616 11.15-1.581.736-2.654 1.585-2.485 1.981.113.397 1.864 2.83 3.897 5.49 4.856 6.51 9.26 13.698 13.44 22.075l3.5 6.962-3.049-2.208c-1.637-1.188-4.404-3.226-6.098-4.471-3.22-2.49-5.647-3.906-5.93-3.566-.113.113.452 1.415 1.243 3 10.22 20.772 17.167 39.677 20.611 56.204 1.186 5.377 1.3 7.585 1.243 19.924-.057 19.414-1.92 33.507-6.72 50.261-3.84 13.584-8.358 23.886-14.626 33.338-3.84 5.83-6.1 8.66-12.367 15.565-2.767 3.057-4.8 5.547-4.518 5.547.847 0 9.261-4.98 12.537-7.471 4.63-3.453 12.254-10.98 14.851-14.773 1.3-1.755 2.372-3.226 2.485-3.226.056 0 1.412 1.754 2.993 3.905 3.445 4.641 6.833 7.811 8.81 8.32 3.952 1.02 9.6-1.301 13.948-5.716 1.524-1.528 4.63-5.66 6.889-9.056 11.294-16.98 21.176-42.96 25.242-66.223 1.469-8.66 2.033-24.112 1.13-31.13-3.05-22.64-16.49-59.884-38.626-107.146-4.292-9.056-5.534-12.338-5.986-15.565-1.073-7.018-2.372-12.905-4.405-19.923-2.146-7.471-7.397-21.225-8.131-21.225-.226 0-.622 1.188-.791 2.66zM160 102.316c-7.68 2.15-13.27 7.528-17.788 17.093-3.558 7.415-4.97 9.623-8.584 13.358-3.84 3.962-6.89 5.943-12.084 7.754-2.485.85-4.688 1.755-4.913 1.981-.791.736 8.131-.452 10.334-1.415 3.331-1.415 12.14-8.942 15.699-13.414 1.694-2.094 4.235-5.66 5.59-7.81 4.405-6.906 7.398-8.66 15.53-9.17 5.082-.34 5.364-.283 9.035 1.528 5.139 2.547 9.656 7.245 14.57 15.226 6.55 10.64 13.27 16.47 19.086 16.47 1.694 0 2.09-.226 2.09-1.132 0-.792-.396-1.132-1.356-1.132-2.033 0-6.72-4.018-10.164-8.66-1.638-2.263-5.478-8.037-8.527-12.848-6.269-9.962-10.956-15.169-15.134-16.98-3.671-1.585-9.375-1.924-13.384-.849z"/><path d="M147.012 127.956c0 1.019 3.557 3.623 7.34 5.434 4.688 2.207 12.03 2.717 17.28 1.188 3.672-1.018 9.827-4.131 9.827-4.867 0-.623.17-.68-4.292.396-11.125 2.547-19.652 1.924-29.139-2.264-.62-.283-1.016-.226-1.016.113z"/></svg>
